# xmcd
#
# Track frame offsets:
#	150
#	19596
#	34081
#	59054
#	77381
#	104982
#	119970
#	138473
#	155287
#	174788
#	193497
#	207558
#	223622
#	243107
#	261101
#	275330
#	293537
#	321329
#
# Disc length: 4576 seconds
#
# Revision: 2
# Processed by: cddbd v1.5.2PL0 Copyright (c) Steve Scherf et al.
# Submitted via: audiograbber 1.83.01
#
DISCID=1411de12
DTITLE=Various Artist - whiskeybar
DYEAR=2005
DGENRE=Rock
TTITLE0=Terence Trent d'Arby - O divina
TTITLE1=Swiss Blues Authority - Better stay in Bed
TTITLE2=Innes Sibun - Desert Rain
TTITLE3=C.C.B. - Sundown
TTITLE4=Elizabeth Lee - Today
TTITLE5=Tom Gillam - We won't look back
TTITLE6=John Dean Foster - Second Time around
TTITLE7=Haddaway - Miss Joan
TTITLE8=Paul Camilleri - In the middle of the night
TTITLE9=Paddy Milner - You think you're so damn funny
TTITLE10=Pat O'Bryan - Black Cat Bone
TTITLE11=Richie Arndt and The Bluenatics - Mississippi
TTITLE12=Tyler Roberts - Same old streets
TTITLE13=Doug Adkins and One More Ride - Where I went wrong
TTITLE14=Funky Nashville - Witch queen of New Orleans
TTITLE15=The Returners - Grapevine
TTITLE16=The Dennis Hormes Blues Band - It's true
TTITLE17=Lauren Field - Wicked Game
EXTD=
EXTT0=
EXTT1=
EXTT2=
EXTT3=
EXTT4=
EXTT5=
EXTT6=
EXTT7=
EXTT8=
EXTT9=
EXTT10=
EXTT11=
EXTT12=
EXTT13=
EXTT14=
EXTT15=
EXTT16=
EXTT17=
PLAYORDER=
